<?xml version="1.0" encoding="UTF-8" standalone="no"?>
<svg
   xmlns:svg="http://www.w3.org/2000/svg"
   xmlns="http://www.w3.org/2000/svg"
   xmlns:sodipodi="http://sodipodi.sourceforge.net/DTD/sodipodi-0.dtd"
   xmlns:inkscape="http://www.inkscape.org/namespaces/inkscape"
   width="13"
   height="13"
   viewBox="0 0 13 13"
   version="1.1"
   id="svg17"
   sodipodi:docname="amplifyTestsToolWindow_dark.svg"
   inkscape:version="1.0 (4035a4f, 2020-05-01)"
   inkscape:export-filename="/Users/caro/Pictures/amplifyTests.png"
   inkscape:export-xdpi="192"
   inkscape:export-ydpi="192">
  <defs />
  <sodipodi:namedview
     inkscape:document-rotation="0"
     pagecolor="#ffffff"
     bordercolor="#666666"
     borderopacity="1"
     objecttolerance="10"
     gridtolerance="10"
     guidetolerance="10"
     inkscape:pageopacity="0"
     inkscape:pageshadow="2"
     inkscape:window-width="1829"
     inkscape:window-height="946"
     id="namedview19"
     showgrid="false"
     inkscape:zoom="44.628647"
     inkscape:cx="5.6943074"
     inkscape:cy="6.2121412"
     inkscape:window-x="1496"
     inkscape:window-y="23"
     inkscape:window-maximized="0"
     inkscape:current-layer="svg17" />
  <path
     style="fill:#afb1b3;fill-opacity:1;fill-rule:evenodd;stroke-width:0;stroke-miterlimit:4;stroke-dasharray:none;stroke:none"
     d="m 0.83147121,8.1159921 c 0,-3.1995492 0.008,-4.0045959 0.0396014,-3.985083 0.0217808,0.013449 1.28989829,0.9175444 2.81803879,2.009101 L 6.4675486,8.1246585 3.6670125,10.125093 c -1.540295,1.100239 -2.80841245,2.000435 -2.81803881,2.000435 -0.009626,0 -0.0175025,-1.804291 -0.0175025,-4.0095359 z"
     id="path914" />
  <path
     style="fill:#afb1b3;fill-opacity:1;fill-rule:evenodd;stroke-width:0;stroke-miterlimit:4;stroke-dasharray:none"
     d="M 6.5078931,9.6198763 C 6.5156822,9.5953015 6.6739678,9.5001126 6.859639,9.408345 7.1390931,9.2702256 7.2470267,9.1941002 7.4864519,8.9662564 7.8071745,8.6610471 7.9916035,8.419382 8.1589107,8.0851055 8.3635856,7.676169 8.5888985,6.8069341 8.6028043,6.3726083 8.6137374,6.0311308 8.5058888,6.0313833 8.3086834,6.3732958 8.1034798,6.7290767 7.703592,7.0815571 7.3315675,7.234573 7.1978455,7.2895737 7.0896648,7.3086796 6.9087955,7.3092391 6.6823064,7.3099393 6.656425,7.3028947 6.5293006,7.2059335 6.3159335,7.0431932 6.205476,6.838096 6.1907394,6.5772942 6.1796507,6.381052 6.1891782,6.3372949 6.2881356,6.1299769 6.3484636,6.0035884 6.523151,5.7091248 6.67633,5.4756128 7.1313262,4.7819995 7.3330271,4.3613273 7.3741799,4.0201612 7.3934975,3.8600162 7.3628647,3.7812387 7.2918939,3.8085495 7.2671499,3.8180713 7.1684942,3.9343414 7.0726587,4.066928 6.6576476,4.6410868 6.4688629,4.8216726 5.5519633,5.521579 5.2818814,5.7277431 4.9883048,5.9576713 4.8995708,6.0325304 L 4.7382363,6.1686377 4.228398,5.7867943 3.7185598,5.4049508 3.8149385,5.2407103 C 4.0131765,4.9028913 4.2126248,4.6538667 4.5838972,4.2806152 5.1690318,3.6923614 5.8462388,3.2280383 6.7716877,2.7805694 7.4916971,2.4324339 7.9504148,2.276464 9.2903395,1.9241962 11.023169,1.4686332 11.649338,1.2157436 12.324612,0.69875053 12.60215,0.48626576 12.791155,0.27805911 12.83951,0.13154061 c 0.01964,-0.05951752 0.05445,-0.10821367 0.07734,-0.10821367 0.06903,0 0.08192,0.13840695 0.03107,0.33363069 C 12.806468,0.90002984 12.46372,1.2308899 10.869332,2.3634548 9.566251,3.289091 9.1410192,3.7721196 9.1066569,4.3657101 c -0.025575,0.4417931 0.1328375,0.7761953 0.4447483,0.938846 0.1473633,0.076844 0.2014117,0.086922 0.4675938,0.087186 0.505256,5.006e-4 0.959576,-0.194816 1.507608,-0.6481328 0.246161,-0.2036176 0.298218,-0.2257678 0.298218,-0.1268934 0,0.1103153 -0.192801,0.6704809 -0.343612,0.9983352 C 11.014825,6.628963 10.400656,7.5053544 9.6495598,8.228746 8.7378775,9.1068003 7.782723,9.5851027 6.8227964,9.6442733 6.5476265,9.6612351 6.4960508,9.6572391 6.5078931,9.6198763 Z"
     id="path912" />
</svg>
