<?xml version="1.0" encoding="UTF-8" standalone="no"?>
<svg
   xmlns:dc="http://purl.org/dc/elements/1.1/"
   xmlns:cc="http://creativecommons.org/ns#"
   xmlns:rdf="http://www.w3.org/1999/02/22-rdf-syntax-ns#"
   xmlns:svg="http://www.w3.org/2000/svg"
   xmlns="http://www.w3.org/2000/svg"
   xmlns:sodipodi="http://sodipodi.sourceforge.net/DTD/sodipodi-0.dtd"
   xmlns:inkscape="http://www.inkscape.org/namespaces/inkscape"
   inkscape:export-ydpi="192"
   inkscape:export-xdpi="192"
   inkscape:export-filename="/Users/caro/Pictures/amplifyTests.png"
   inkscape:version="1.0 (4035a4f, 2020-05-01)"
   sodipodi:docname="amplifyTestsToolWindow.svg"
   id="svg17"
   version="1.1"
   viewBox="0 0 13 13"
   height="13"
   width="13">
  <metadata
     id="metadata23">
    <rdf:RDF>
      <cc:Work
         rdf:about="">
        <dc:format>image/svg+xml</dc:format>
        <dc:type
           rdf:resource="http://purl.org/dc/dcmitype/StillImage" />
        <dc:title></dc:title>
      </cc:Work>
    </rdf:RDF>
  </metadata>
  <defs
     id="defs21">
    <clipPath
       id="clipPath2304"
       clipPathUnits="userSpaceOnUse">
      <path
         sodipodi:nodetypes="ccccccc"
         id="path2306"
         d="m 1,4 8,6 -2.3685661,2.385178 3.7545621,2.169844 8.11863,-9.5814466 -2.242985,-6.0463073 z"
         style="fill:#ffffff;fill-opacity:1;stroke:none;stroke-width:0.1;stroke-linecap:butt;stroke-linejoin:miter;stroke-miterlimit:4;stroke-dasharray:none;stroke-opacity:1" />
    </clipPath>
    <filter
       id="filter886"
       inkscape:label="Greyscale"
       style="color-interpolation-filters:sRGB">
      <feColorMatrix
         id="feColorMatrix884"
         values="0.21 0.72 0.072 0 0 0.21 0.72 0.072 0 0 0.21 0.72 0.072 0 0 0 0 0 1 0 " />
    </filter>
    <filter
       id="filter890"
       inkscape:label="Greyscale"
       style="color-interpolation-filters:sRGB">
      <feColorMatrix
         result="fbSourceGraphic"
         id="feColorMatrix888"
         values="0.21 0.72 0.072 0 0 0.21 0.72 0.072 0 0 0.21 0.72 0.072 0 0 0 0 0 1 0 " />
      <feColorMatrix
         id="feColorMatrix896"
         values="0 0 0 -1 0 0 0 0 -1 0 0 0 0 -1 0 0 0 0 1 0"
         in="fbSourceGraphic"
         result="fbSourceGraphicAlpha" />
      <feColorMatrix
         result="fbSourceGraphic"
         in="fbSourceGraphic"
         values="6.04863 7.81155 0.072 0 0 6.04863 7.81155 0.072 0 0 6.04863 7.81155 0.072 0 0 0 0 0 1 0 "
         id="feColorMatrix898" />
      <feColorMatrix
         id="feColorMatrix904"
         values="0 0 0 -1 0 0 0 0 -1 0 0 0 0 -1 0 0 0 0 1 0"
         in="fbSourceGraphic"
         result="fbSourceGraphicAlpha" />
      <feColorMatrix
         in="fbSourceGraphic"
         values="0.0911854 0.151976 0.072 0 0 0.0911854 0.151976 0.072 0 0 0.0911854 0.151976 0.072 0 0 0 0 0 1 0 "
         id="feColorMatrix906" />
    </filter>
    <filter
       id="filter894"
       inkscape:label="Greyscale"
       style="color-interpolation-filters:sRGB">
      <feColorMatrix
         result="fbSourceGraphic"
         id="feColorMatrix892"
         values="0.21 0.72 0.072 0 0 0.21 0.72 0.072 0 0 0.21 0.72 0.072 0 0 0 0 0 1 0 " />
      <feColorMatrix
         id="feColorMatrix900"
         values="0 0 0 -1 0 0 0 0 -1 0 0 0 0 -1 0 0 0 0 1 0"
         in="fbSourceGraphic"
         result="fbSourceGraphicAlpha" />
      <feColorMatrix
         result="fbSourceGraphic"
         in="fbSourceGraphic"
         values="6.04863 7.81155 0.072 0 0 6.04863 7.81155 0.072 0 0 6.04863 7.81155 0.072 0 0 0 0 0 1 0 "
         id="feColorMatrix902" />
      <feColorMatrix
         id="feColorMatrix908"
         values="0 0 0 -1 0 0 0 0 -1 0 0 0 0 -1 0 0 0 0 1 0"
         in="fbSourceGraphic"
         result="fbSourceGraphicAlpha" />
      <feColorMatrix
         in="fbSourceGraphic"
         values="0.0911854 0.151976 0.072 0 0 0.0911854 0.151976 0.072 0 0 0.0911854 0.151976 0.072 0 0 0 0 0 1 0 "
         id="feColorMatrix910" />
    </filter>
  </defs>
  <sodipodi:namedview
     inkscape:current-layer="layer1"
     inkscape:window-maximized="0"
     inkscape:window-y="39"
     inkscape:window-x="1496"
     inkscape:cy="6.2121412"
     inkscape:cx="8.1814991"
     inkscape:zoom="44.628647"
     showgrid="false"
     id="namedview19"
     inkscape:window-height="946"
     inkscape:window-width="1829"
     inkscape:pageshadow="2"
     inkscape:pageopacity="0"
     guidetolerance="10"
     gridtolerance="10"
     objecttolerance="10"
     borderopacity="1"
     bordercolor="#666666"
     pagecolor="#ffffff"
     inkscape:document-rotation="0" />
  <rect
     style="stroke-width:0.8125;filter:url(#filter886)"
     y="0"
     x="0"
     fill="none"
     height="13"
     width="13"
     id="frame" />
  <g
     style="display:inline;mix-blend-mode:normal"
     inkscape:label="Layer 1"
     id="layer1"
     inkscape:groupmode="layer">
    <path
       inkscape:export-ydpi="192"
       inkscape:export-xdpi="192"
       fill="#59a869"
       d="M 0.8125,4.0625 6.5000003,8.1249997 0.8125,12.1875 Z"
       id="path13"
       style="fill:#6e6e6e;fill-opacity:1;fill-rule:evenodd;stroke-width:0.8125;filter:url(#filter890)" />
    <g
       style="filter:url(#filter894)"
       transform="scale(0.8125)"
       clip-path="url(#clipPath2304)"
       id="g1219">
      <g
         id="g1217"
         inkscape:label="Clip">
        <path
           inkscape:original-d="m 8.0337032,11.900096 c -0.029665,-0.0058 -0.043333,-0.02206 -0.043333,-0.05181 0,-0.07834 0.1037649,-0.146858 0.3979235,-0.262769 0.302299,-0.119116 0.587274,-0.326364 0.9506271,-0.69134 C 9.9346871,10.295753 10.25192,9.632492 10.475796,8.5172339 10.575256,8.0217662 10.605148,7.73538 10.568553,7.6285307 10.515375,7.4732567 10.422658,7.5341171 10.264216,7.8282854 10.109034,8.1164073 9.8475647,8.4095271 9.5391028,8.641173 9.3575438,8.7775183 9.0122361,8.9545417 8.8377706,9.000714 8.663111,9.046937 8.3417704,9.046172 8.2070648,8.9991847 8.0446163,8.9425437 7.8865886,8.8129127 7.7788977,8.6479467 7.6347088,8.4270727 7.5988425,8.319105 7.5901196,8.0796751 7.5835342,7.8988279 7.5884088,7.8590314 7.6336648,7.7242097 7.7102977,7.4959224 7.8492339,7.2408147 8.0948481,6.8774066 8.7339734,5.9317651 8.8998346,5.6167002 9.0292917,5.1023614 c 0.059012,-0.234456 0.049571,-0.4108625 -0.021986,-0.4108625 -0.046406,0 -0.1969077,0.1771626 -0.3562543,0.4193605 C 8.2869826,5.6642234 7.9690272,5.9684323 6.960007,6.7287975 6.684602,6.9363334 6.3569922,7.1878388 6.2319846,7.2876965 5.2432334,8.0775303 4.7486317,8.7924447 4.5988852,9.648231 c -0.027775,0.158724 -0.036636,0.302154 -0.036636,0.592978 0,0.686872 -0.05925,0.962542 -0.1783611,0.829867 C 4.3257281,11.006292 4.2726958,10.828374 4.1585776,10.315158 3.8798396,9.061603 3.9695583,7.8977154 4.4198664,6.9255538 4.8099833,6.083341 5.3379633,5.4255974 6.1992735,4.7088198 6.6660834,4.3203431 7.4075305,3.8544783 8.1422218,3.4880308 9.1821177,2.9693537 9.7447769,2.7765131 11.591822,2.3057451 13.50555,1.8179822 14.430436,1.4330496 15.223746,0.79416189 c 0.354211,-0.2852623 0.507015,-0.4706609 0.584105,-0.7087001 0.02467,-0.076196 0.05312,-0.096282 0.113833,-0.080402 0.145322,0.038002 0.07893,0.5102976 -0.121062,0.8612431 C 15.538947,1.3254837 15.019993,1.7830609 13.77773,2.6499451 13.239793,3.0253322 12.76898,3.3675609 12.537694,3.5513146 12.365593,3.688048 11.892695,4.105556 11.851765,4.1569033 c -0.01062,0.013324 -0.07224,0.084893 -0.136916,0.1590436 -0.117796,0.1350387 -0.284205,0.3708948 -0.341454,0.483953 -0.121191,0.2393295 -0.177898,0.5105148 -0.159028,0.7604938 0.05233,0.6931397 0.449127,1.0762754 1.114663,1.0762754 0.201227,0 0.487391,-0.047923 0.687966,-0.1152174 0.371602,-0.1246722 0.86894,-0.4387402 1.278499,-0.8073669 0.197578,-0.1778327 0.281932,-0.1815669 0.281107,-0.012444 -3.68e-4,0.081931 -0.140106,0.5344813 -0.255955,0.8291046 -0.411029,1.0453091 -1.073992,2.1306636 -1.839069,3.0107826 -1.154808,1.328458 -2.479388,2.147241 -3.7587262,2.32344 -0.2234266,0.03078 -0.6095724,0.05045 -0.6891495,0.03511 z"
           id="path224"
           d="m 8.0337032,11.900096 c -0.029665,-0.0058 -0.043333,-0.02206 -0.043333,-0.05181 0,-0.07834 0.1037649,-0.146858 0.3979235,-0.262769 0.302299,-0.119116 0.587274,-0.326364 0.9506271,-0.69134 C 9.9346871,10.295753 10.25192,9.632492 10.475796,8.5172339 10.575256,8.0217662 10.605148,7.73538 10.568553,7.6285307 10.515375,7.4732567 10.422658,7.5341171 10.264216,7.8282854 10.109034,8.1164073 9.8475647,8.4095271 9.5391028,8.641173 9.3575438,8.7775183 9.0122361,8.9545417 8.8377706,9.000714 8.663111,9.046937 8.3417704,9.046172 8.2070648,8.9991847 8.0446163,8.9425437 7.8865886,8.8129127 7.7788977,8.6479467 7.6347088,8.4270727 7.5988425,8.319105 7.5901196,8.0796751 7.5835342,7.8988279 7.5884088,7.8590314 7.6336648,7.7242097 7.7102977,7.4959224 7.8492339,7.2408147 8.0948481,6.8774066 8.7339734,5.9317651 8.8998346,5.6167002 9.0292917,5.1023614 c 0.059012,-0.234456 0.049571,-0.4108625 -0.021986,-0.4108625 -0.046406,0 -0.1969077,0.1771626 -0.3562543,0.4193605 C 8.2869826,5.6642234 7.9690272,5.9684323 6.960007,6.7287975 6.684602,6.9363334 6.3569922,7.1878388 6.2319846,7.2876965 5.2432334,8.0775303 4.7486317,8.7924447 4.5988852,9.648231 c -0.027775,0.158724 -0.036636,0.302154 -0.036636,0.592978 0,0.686872 -0.05925,0.962542 -0.1783611,0.829867 C 4.3257281,11.006292 4.2726958,10.828374 4.1585776,10.315158 3.8798396,9.061603 3.9695583,7.8977154 4.4198664,6.9255538 4.8099833,6.083341 5.3379633,5.4255974 6.1992735,4.7088198 6.6660834,4.3203431 7.4075305,3.8544783 8.1422218,3.4880308 9.1821177,2.9693537 9.7447769,2.7765131 11.591822,2.3057451 13.50555,1.8179822 14.430436,1.4330496 15.223746,0.79416189 c 0.354211,-0.2852623 0.507015,-0.4706609 0.584105,-0.7087001 0.02467,-0.076196 0.05312,-0.096282 0.113833,-0.080402 0.145322,0.038002 0.07893,0.5102976 -0.121062,0.8612431 C 15.538947,1.3254837 15.019993,1.7830609 13.77773,2.6499451 13.239793,3.0253322 12.76898,3.3675609 12.537694,3.5513146 12.365593,3.688048 11.892695,4.105556 11.851765,4.1569033 c -0.01062,0.013324 -0.07224,0.084893 -0.136916,0.1590436 -0.117796,0.1350387 -0.284205,0.3708948 -0.341454,0.483953 -0.121191,0.2393295 -0.177898,0.5105148 -0.159028,0.7604938 0.05233,0.6931397 0.449127,1.0762754 1.114663,1.0762754 0.201227,0 0.487391,-0.047923 0.687966,-0.1152174 0.371602,-0.1246722 0.86894,-0.4387402 1.278499,-0.8073669 0.197578,-0.1778327 0.281932,-0.1815669 0.281107,-0.012444 -3.68e-4,0.081931 -0.140106,0.5344813 -0.255955,0.8291046 -0.411029,1.0453091 -1.073992,2.1306636 -1.839069,3.0107826 -1.154808,1.328458 -2.479388,2.147241 -3.7587262,2.32344 -0.2234266,0.03078 -0.6095724,0.05045 -0.6891495,0.03511 z"
           style="fill:#00a6d8;fill-opacity:1;stroke-width:0.0192591" />
      </g>
    </g>
    <path
       id="path912"
       d="M 6.5078931,9.6198763 C 6.5156822,9.5953015 6.6739678,9.5001126 6.859639,9.408345 7.1390931,9.2702256 7.2470267,9.1941002 7.4864519,8.9662564 7.8071745,8.6610471 7.9916035,8.419382 8.1589107,8.0851055 8.3635856,7.676169 8.5888985,6.8069341 8.6028043,6.3726083 8.6137374,6.0311308 8.5058888,6.0313833 8.3086834,6.3732958 8.1034798,6.7290767 7.703592,7.0815571 7.3315675,7.234573 7.1978455,7.2895737 7.0896648,7.3086796 6.9087955,7.3092391 6.6823064,7.3099393 6.656425,7.3028947 6.5293006,7.2059335 6.3159335,7.0431932 6.205476,6.838096 6.1907394,6.5772942 6.1796507,6.381052 6.1891782,6.3372949 6.2881356,6.1299769 6.3484636,6.0035884 6.523151,5.7091248 6.67633,5.4756128 7.1313262,4.7819995 7.3330271,4.3613273 7.3741799,4.0201612 7.3934975,3.8600162 7.3628647,3.7812387 7.2918939,3.8085495 7.2671499,3.8180713 7.1684942,3.9343414 7.0726587,4.066928 6.6576476,4.6410868 6.4688629,4.8216726 5.5519633,5.521579 5.2818814,5.7277431 4.9883048,5.9576713 4.8995708,6.0325304 L 4.7382363,6.1686377 4.228398,5.7867943 3.7185598,5.4049508 3.8149385,5.2407103 C 4.0131765,4.9028913 4.2126248,4.6538667 4.5838972,4.2806152 5.1690318,3.6923614 5.8462388,3.2280383 6.7716877,2.7805694 7.4916971,2.4324339 7.9504148,2.276464 9.2903395,1.9241962 11.023169,1.4686332 11.649338,1.2157436 12.324612,0.69875053 12.60215,0.48626576 12.791155,0.27805911 12.83951,0.13154061 c 0.01964,-0.05951752 0.05445,-0.10821367 0.07734,-0.10821367 0.06903,0 0.08192,0.13840695 0.03107,0.33363069 C 12.806468,0.90002984 12.46372,1.2308899 10.869332,2.3634548 9.566251,3.289091 9.1410192,3.7721196 9.1066569,4.3657101 c -0.025575,0.4417931 0.1328375,0.7761953 0.4447483,0.938846 0.1473633,0.076844 0.2014117,0.086922 0.4675938,0.087186 0.505256,5.006e-4 0.959576,-0.194816 1.507608,-0.6481328 0.246161,-0.2036176 0.298218,-0.2257678 0.298218,-0.1268934 0,0.1103153 -0.192801,0.6704809 -0.343612,0.9983352 C 11.014825,6.628963 10.400656,7.5053544 9.6495598,8.228746 8.7378775,9.1068003 7.782723,9.5851027 6.8227964,9.6442733 6.5476265,9.6612351 6.4960508,9.6572391 6.5078931,9.6198763 Z"
       style="fill:#6e6e6e;fill-opacity:1;fill-rule:evenodd;stroke-width:0;stroke-miterlimit:4;stroke-dasharray:none" />
    <path
       id="path914"
       d="m 0.83147121,8.1159921 c 0,-3.1995492 0.008,-4.0045959 0.0396014,-3.985083 0.0217808,0.013449 1.28989829,0.9175444 2.81803879,2.009101 L 6.4675486,8.1246585 3.6670125,10.125093 c -1.540295,1.100239 -2.80841245,2.000435 -2.81803881,2.000435 -0.009626,0 -0.0175025,-1.804291 -0.0175025,-4.0095359 z"
       style="fill:#6e6e6e;fill-opacity:1;fill-rule:evenodd;stroke-width:0;stroke-miterlimit:4;stroke-dasharray:none" />
  </g>
</svg>
